<mxfile host="app.diagrams.net" modified="2021-04-16T15:14:16.094Z" agent="5.0 (Windows NT 10.0; Win64; x64) AppleWebKit/537.36 (KHTML, like Gecko) Chrome/90.0.4430.72 Safari/537.36" etag="UhSerU1JuZPVuajpqDqX" version="14.6.1" type="github">
  <diagram id="gHFNYnrsrtrEeCh-4cgK" name="Page-1">
    <mxGraphModel dx="1635" dy="877" grid="1" gridSize="10" guides="1" tooltips="1" connect="1" arrows="1" fold="1" page="1" pageScale="1" pageWidth="850" pageHeight="1100" math="0" shadow="0">
      <root>
        <mxCell id="0" />
        <mxCell id="1" parent="0" />
        <mxCell id="oYDoOZac3hvdo6MkUvr5-17" value="" style="group" vertex="1" connectable="0" parent="1">
          <mxGeometry x="140" y="160" width="560" height="82.5" as="geometry" />
        </mxCell>
        <mxCell id="oYDoOZac3hvdo6MkUvr5-16" value="Batman V" style="strokeWidth=2;html=1;shape=mxgraph.flowchart.direct_data;whiteSpace=wrap;fillColor=#ffe6cc;strokeColor=#d79b00;" vertex="1" parent="oYDoOZac3hvdo6MkUvr5-17">
          <mxGeometry y="21.45" width="96.55172413793102" height="39.6" as="geometry" />
        </mxCell>
        <mxCell id="oYDoOZac3hvdo6MkUvr5-14" value="vxlan" style="strokeWidth=2;html=1;shape=mxgraph.flowchart.direct_data;whiteSpace=wrap;fillColor=#dae8fc;strokeColor=#6c8ebf;" vertex="1" parent="oYDoOZac3hvdo6MkUvr5-17">
          <mxGeometry x="77.24137931034483" y="9.9" width="125.51724137931033" height="62.7" as="geometry" />
        </mxCell>
        <mxCell id="oYDoOZac3hvdo6MkUvr5-8" value="Wireguard" style="strokeWidth=2;html=1;shape=mxgraph.flowchart.direct_data;whiteSpace=wrap;fillColor=#d5e8d4;strokeColor=#82b366;" vertex="1" parent="oYDoOZac3hvdo6MkUvr5-17">
          <mxGeometry x="173.79310344827587" width="193.10344827586204" height="82.5" as="geometry" />
        </mxCell>
        <mxCell id="oYDoOZac3hvdo6MkUvr5-10" value="vxlan" style="strokeWidth=2;html=1;shape=mxgraph.flowchart.direct_data;whiteSpace=wrap;fillColor=#dae8fc;strokeColor=#6c8ebf;" vertex="1" parent="oYDoOZac3hvdo6MkUvr5-17">
          <mxGeometry x="347.58620689655174" y="9.9" width="125.51724137931033" height="62.7" as="geometry" />
        </mxCell>
        <mxCell id="oYDoOZac3hvdo6MkUvr5-13" value="Batman V" style="strokeWidth=2;html=1;shape=mxgraph.flowchart.direct_data;whiteSpace=wrap;fillColor=#ffe6cc;strokeColor=#d79b00;" vertex="1" parent="oYDoOZac3hvdo6MkUvr5-17">
          <mxGeometry x="463.44827586206895" y="21.45" width="96.55172413793102" height="39.6" as="geometry" />
        </mxCell>
        <mxCell id="oYDoOZac3hvdo6MkUvr5-18" value="" style="image;html=1;image=img/lib/clip_art/networking/Wireless_Router_128x128.png" vertex="1" parent="1">
          <mxGeometry x="740" y="161.25" width="80" height="80" as="geometry" />
        </mxCell>
        <mxCell id="oYDoOZac3hvdo6MkUvr5-20" value="" style="image;html=1;image=img/lib/clip_art/computers/Server_Tower_128x128.png" vertex="1" parent="1">
          <mxGeometry x="30" y="161.25" width="80" height="80" as="geometry" />
        </mxCell>
        <mxCell id="oYDoOZac3hvdo6MkUvr5-21" value="" style="endArrow=none;html=1;entryX=1;entryY=0.5;entryDx=0;entryDy=0;entryPerimeter=0;exitX=0.375;exitY=0.5;exitDx=0;exitDy=0;exitPerimeter=0;" edge="1" parent="1" source="oYDoOZac3hvdo6MkUvr5-18" target="oYDoOZac3hvdo6MkUvr5-13">
          <mxGeometry width="50" height="50" relative="1" as="geometry">
            <mxPoint x="400" y="470" as="sourcePoint" />
            <mxPoint x="450" y="420" as="targetPoint" />
          </mxGeometry>
        </mxCell>
        <mxCell id="oYDoOZac3hvdo6MkUvr5-22" value="" style="endArrow=none;html=1;exitX=0;exitY=0.5;exitDx=0;exitDy=0;exitPerimeter=0;entryX=0.5;entryY=0.5;entryDx=0;entryDy=0;entryPerimeter=0;" edge="1" parent="1" source="oYDoOZac3hvdo6MkUvr5-16" target="oYDoOZac3hvdo6MkUvr5-20">
          <mxGeometry width="50" height="50" relative="1" as="geometry">
            <mxPoint x="400" y="470" as="sourcePoint" />
            <mxPoint x="130" y="350" as="targetPoint" />
          </mxGeometry>
        </mxCell>
      </root>
    </mxGraphModel>
  </diagram>
</mxfile>
